<?xml version="1.0" encoding="utf-8"?>
<!-- Generator: Adobe Illustrator 27.0.0, SVG Export Plug-In . SVG Version: 6.00 Build 0)  -->
<svg version="1.1" id="Layer_1" xmlns="http://www.w3.org/2000/svg" xmlns:xlink="http://www.w3.org/1999/xlink" x="0px" y="0px"
	 viewBox="0 0 32 32" style="enable-background:new 0 0 32 32;" xml:space="preserve">
<style type="text/css">
	.st0{fill:#D0121C;}
	.st1{fill:#FF6F00;}
	.st2{fill:none;stroke:#4152E2;stroke-width:4;stroke-linecap:round;stroke-miterlimit:10;}
	.st3{fill:#14C149;stroke:#06661F;stroke-width:2;stroke-linecap:round;stroke-miterlimit:10;}
	.st4{fill:none;stroke:#06661F;stroke-width:2;stroke-linecap:round;stroke-miterlimit:10;}
	.st5{fill:#E23030;stroke:#8A0606;stroke-width:2;stroke-linecap:round;stroke-miterlimit:10;}
	.st6{fill:none;stroke:#8A0606;stroke-width:2;stroke-linecap:round;stroke-miterlimit:10;}
	.st7{fill:none;stroke:#4152E2;stroke-width:2;stroke-miterlimit:10;}
	.st8{fill:none;stroke:#06661F;stroke-width:4;stroke-linecap:round;stroke-miterlimit:10;}
	.st9{fill:none;stroke:#B54900;stroke-width:2;stroke-miterlimit:10;}
	.st10{fill:none;stroke:#0A2287;stroke-width:2;stroke-linecap:round;stroke-miterlimit:10;}
	.st11{fill:none;stroke:#0A2287;stroke-width:2;stroke-miterlimit:10;}
	.st12{fill:none;stroke:#4152E2;stroke-width:2;stroke-linecap:round;stroke-miterlimit:10;}
</style>
<path class="st7" d="M11.1,20.6H2.5c-0.8,0-1.5-0.7-1.5-1.5v-8.9c0-0.8,0.7-1.5,1.5-1.5h8.7V20.6z"/>
<path class="st7" d="M31.1,14.6c0-2.4-1.5-4.4-3.5-5.3c-0.6-0.2-1-0.8-1-1.4V2.6c0-1.1-1-1.8-2.1-1.5L12.2,5.4c-0.6,0.2-1,0.8-1,1.5
	v15.6c0,0.7,0.4,1.2,1,1.5l12.3,4.2c1,0.3,2.1-0.4,2.1-1.5v-5.3c0-0.6,0.4-1.2,1-1.4C29.6,19.1,31.1,17,31.1,14.6z"/>
<path class="st7" d="M6.9,31H5.2c-0.8,0-1.5-0.7-1.5-1.5v-9h4.6v9C8.4,30.4,7.7,31,6.9,31z"/>
</svg>
