<?xml version="1.0" encoding="utf-8"?>
<!-- Generator: Adobe Illustrator 27.0.0, SVG Export Plug-In . SVG Version: 6.00 Build 0)  -->
<svg version="1.1" id="Layer_1" xmlns="http://www.w3.org/2000/svg" xmlns:xlink="http://www.w3.org/1999/xlink" x="0px" y="0px"
	 viewBox="0 0 32 32" style="enable-background:new 0 0 32 32;" xml:space="preserve">
<style type="text/css">
	.st0{fill:#D0121C;}
	.st1{fill:#FF6F00;}
	.st2{fill:none;stroke:#4152E2;stroke-width:4;stroke-linecap:round;stroke-miterlimit:10;}
	.st3{fill:#14C149;stroke:#06661F;stroke-width:2;stroke-linecap:round;stroke-miterlimit:10;}
	.st4{fill:none;stroke:#06661F;stroke-width:2;stroke-linecap:round;stroke-miterlimit:10;}
	.st5{fill:#E23030;stroke:#8A0606;stroke-width:2;stroke-linecap:round;stroke-miterlimit:10;}
	.st6{fill:none;stroke:#8A0606;stroke-width:2;stroke-linecap:round;stroke-miterlimit:10;}
	.st7{fill:none;stroke:#4152E2;stroke-width:2;stroke-miterlimit:10;}
	.st8{fill:none;stroke:#06661F;stroke-width:4;stroke-linecap:round;stroke-miterlimit:10;}
	.st9{fill:none;stroke:#B54900;stroke-width:2;stroke-miterlimit:10;}
	.st10{fill:none;stroke:#0A2287;stroke-width:2;stroke-linecap:round;stroke-miterlimit:10;}
	.st11{fill:none;stroke:#0A2287;stroke-width:2;stroke-miterlimit:10;}
	.st12{fill:none;stroke:#4152E2;stroke-width:2;stroke-linecap:round;stroke-miterlimit:10;}
</style>
<path class="st7" d="M27.3,31H7.3c-2,0-3.7-1.7-3.7-3.7V4.7c0-2,1.7-3.7,3.7-3.7h20.1c2,0,3.7,1.7,3.7,3.7v22.6
	C31,29.3,29.4,31,27.3,31z"/>
<g>
	<line class="st12" x1="1" y1="10.1" x2="6.1" y2="10.1"/>
	<line class="st12" x1="1" y1="16" x2="6.1" y2="16"/>
	<line class="st12" x1="1" y1="21.9" x2="6.1" y2="21.9"/>
</g>
<g>
	<line class="st12" x1="10.8" y1="7" x2="26.6" y2="7"/>
	<line class="st12" x1="10.8" y1="13" x2="26.6" y2="13"/>
	<line class="st12" x1="10.8" y1="19" x2="26.6" y2="19"/>
	<line class="st12" x1="10.8" y1="25" x2="26.6" y2="25"/>
</g>
</svg>
