<?xml version="1.0" encoding="utf-8"?>
<!-- Generator: Adobe Illustrator 27.0.0, SVG Export Plug-In . SVG Version: 6.00 Build 0)  -->
<svg version="1.1" id="Layer_1" xmlns="http://www.w3.org/2000/svg" xmlns:xlink="http://www.w3.org/1999/xlink" x="0px" y="0px"
	 viewBox="0 0 32 32" style="enable-background:new 0 0 32 32;" xml:space="preserve">
<style type="text/css">
	.st0{fill:#D0121C;}
	.st1{fill:#FF6F00;}
	.st2{fill:none;stroke:#4152E2;stroke-width:4;stroke-linecap:round;stroke-miterlimit:10;}
	.st3{fill:#14C149;stroke:#06661F;stroke-width:2;stroke-linecap:round;stroke-miterlimit:10;}
	.st4{fill:none;stroke:#06661F;stroke-width:2;stroke-linecap:round;stroke-miterlimit:10;}
	.st5{fill:#E23030;stroke:#8A0606;stroke-width:2;stroke-linecap:round;stroke-miterlimit:10;}
	.st6{fill:none;stroke:#8A0606;stroke-width:2;stroke-linecap:round;stroke-miterlimit:10;}
	.st7{fill:none;stroke:#4152E2;stroke-width:2;stroke-miterlimit:10;}
	.st8{fill:none;stroke:#06661F;stroke-width:4;stroke-linecap:round;stroke-miterlimit:10;}
	.st9{fill:none;stroke:#B54900;stroke-width:2;stroke-miterlimit:10;}
	.st10{fill:none;stroke:#0A2287;stroke-width:2;stroke-linecap:round;stroke-miterlimit:10;}
	.st11{fill:none;stroke:#0A2287;stroke-width:2;stroke-miterlimit:10;}
	.st12{fill:none;stroke:#4152E2;stroke-width:2;stroke-linecap:round;stroke-miterlimit:10;}
</style>
<circle class="st0" cx="-607.3" cy="16" r="15"/>
<circle class="st1" cx="-641.8" cy="16" r="15"/>
<line class="st2" x1="-880.7" y1="2.1" x2="-880.7" y2="30"/>
<line class="st2" x1="-866.3" y1="16" x2="-894.4" y2="16"/>
<circle class="st3" cx="-846.5" cy="16.5" r="14.5"/>
<g>
	<path class="st3" d="M-846.9,21.2l-3.9,0.6c-0.6,0.1-1.2-0.5-1.1-1.1l0.6-3.9c0-0.2,0.1-0.4,0.3-0.6l14.3-14.3
		c1.3-1.3,3.4-1.3,4.7,0v0c1.3,1.3,1.3,3.4,0,4.7L-846.4,21C-846.5,21.1-846.7,21.2-846.9,21.2z"/>
</g>
<path class="st4" d="M-846.5,1.9c8,0,14.5,6.5,14.5,14.5"/>
<path class="st5" d="M-802.3,31h-18.5c-1.9,0-3.4-1.5-3.4-3.4V7.4h25.2v20.2C-798.9,29.5-800.4,31-802.3,31z"/>
<line class="st6" x1="-826.5" y1="7.4" x2="-796.4" y2="7.4"/>
<path class="st5" d="M-805,1h-13.1c-0.8,0-1.5,0.7-1.5,1.5v4.9h16.1V2.5C-803.5,1.7-804.1,1-805,1z"/>
<g>
	<line class="st5" x1="-819.2" y1="11.6" x2="-819.2" y2="25.6"/>
	<line class="st5" x1="-811.5" y1="11.4" x2="-811.5" y2="26.1"/>
	<line class="st5" x1="-803.9" y1="11.6" x2="-803.9" y2="25.6"/>
</g>
<circle class="st7" cx="-777.5" cy="8" r="6.9"/>
<path class="st7" d="M-769.9,31c6.8,0,10-7.8,4.8-11.9c-3.3-2.6-7.7-4.2-12.4-4.2s-9.1,1.6-12.4,4.2c-5.2,4-2,11.9,4.8,11.9H-769.9z
	"/>
<g>
	<g>
		<path class="st7" d="M-752.6,11.7c0-1.6,1.3-2.9,2.9-2.9s2.9,1.3,2.9,2.9"/>
		<path class="st7" d="M-739.7,11.7c0-1.6,1.3-2.9,2.9-2.9c1.6,0,2.9,1.3,2.9,2.9"/>
	</g>
	<path class="st7" d="M-746.7,11.7c0-1.9,1.6-3.5,3.5-3.5s3.5,1.6,3.5,3.5"/>
</g>
<polyline class="st7" points="-746.7,11 -746.7,12.6 -744.5,18 "/>
<polyline class="st7" points="-739.7,11 -739.7,12.6 -741.8,18 "/>
<path class="st7" d="M-731.7,31.1h-22.9c-1.9,0-3.5-1.6-3.5-3.5v-6.2c0-1.9,1.6-3.5,3.5-3.5h22.9c1.9,0,3.5,1.6,3.5,3.5v6.2
	C-728.2,29.6-729.8,31.1-731.7,31.1z"/>
<path class="st7" d="M-749,18h11.6c2.2-1.7,3.6-4.4,3.6-7.4c0-5.2-4.2-9.5-9.5-9.5s-9.5,4.2-9.5,9.5C-752.6,13.6-751.2,16.2-749,18z
	"/>
<g>
	<path class="st2" d="M-695.8,12.8l-12.1,12.1c-1,1-2.7,1-3.7,0l-12.1-12.1"/>
</g>
<path class="st8" d="M-689.5,14.6l7.6,7.6c1.6,1.6,4.1,1.6,5.7,0l14.7-14.7"/>
<circle class="st7" cx="-641.8" cy="-30" r="6.5"/>
<path class="st7" d="M-635.2-8.3c5.9,0,8.7-7.4,4.2-11.2c-2.9-2.5-6.7-4-10.8-4s-7.9,1.5-10.8,4c-4.5,3.8-1.7,11.2,4.2,11.2H-635.2z
	"/>
<g>
	<circle class="st9" cx="-641.8" cy="16" r="15"/>
	<line class="st9" x1="-631.2" y1="5.4" x2="-652.4" y2="26.6"/>
</g>
<path class="st10" d="M-615.7,15.1l4.5,4.5c0.9,0.9,2.5,0.9,3.4,0l8.9-8.9"/>
<circle class="st11" cx="-607.3" cy="16" r="15"/>
<g>
	<line class="st2" x1="-559.3" y1="2" x2="-587.3" y2="30"/>
	<line class="st2" x1="-559.3" y1="30" x2="-587.3" y2="2"/>
</g>
<circle class="st3" cx="-538.8" cy="16" r="15"/>
<path class="st3" d="M-547.2,15l4.5,4.5c0.9,0.9,2.5,0.9,3.4,0l8.9-8.9"/>
<path class="st2" d="M-489.9,11.3v13.3c0,3-1.8,5.4-4.1,5.4h-20c-2.2,0-4.1-2.4-4.1-5.4V11.3"/>
<g>
	<path class="st2" d="M-511,8.6l6-6c0.5-0.5,1.3-0.5,1.8,0l6,6"/>
</g>
<path class="st10" d="M-444.3,17c0,4.3-3.5,7.8-7.8,7.8h0c-4.3,0-7.8-3.5-7.8-7.8"/>
<path class="st10" d="M-457.6,13.2c0,0,5.2,0,9.2-3.4c0.3-0.3,0.8-0.1,0.9,0.3c0.2,1.2,0.8,3.1,3.2,3.1"/>
<path class="st10" d="M-455.1,24.2c0,0-0.1,4.1-3.5,4.5c-3.4,0.4-4.9,2.4-4.9,2.4"/>
<path class="st10" d="M-448.5,24.2c0,0,0.1,4.1,3.5,4.5c3.4,0.4,4.9,2.4,4.9,2.4"/>
<path class="st10" d="M-462.5,29.3c0,0-4.8-3-4.4-7.6s3.2-6.2,3.2-9.6s0.5-11.1,11.8-11.1c11.3,0,11.8,7.7,11.8,8.6c0,0.9-1,5,2,8.6
	c3.1,3.6-0.6,8.4-0.6,8.4"/>
<polyline class="st10" points="-456.7,27.8 -452.3,31.1 -450,29.5 "/>
<g>
	<path class="st10" d="M-391.3,16.3c0,4.4-3.6,8-8,8h0c-4.4,0-8-3.6-8-8"/>
	<path class="st10" d="M-404.3,11.8c4.3-0.1,6.4-1.6,8.3-2.5c0.5-0.2,1-0.1,1.3,0.2c0.8,0.8,2.4,2,3.8,2.3"/>
	<path class="st10" d="M-402.3,23.7V25c0,1-0.5,1.9-1.4,2.5c-0.8,0.5-1.9,1-3.2,1.3c-2.7,0.6-4.7,1.6-4.7,1.6"/>
	<path class="st10" d="M-395.5,23.7V25c0,1,0.5,1.9,1.4,2.5c0.8,0.5,1.9,1,3.2,1.3c2.7,0.6,4.7,1.6,4.7,1.6"/>
	<polyline class="st10" points="-402.6,27.1 -400.2,31 -397.1,31 -395,26.8 	"/>
	<path class="st10" d="M-408.2,17.2c-1.2,0-2.1-1-2.1-2.1s1-2.1,2.1-2.1"/>
	<path class="st10" d="M-389.9,17.2c1.2,0,2.1-1,2.1-2.1s-1-2.1-2.1-2.1"/>
	<path class="st10" d="M-408.7,7.5c0,0-0.8,3.8-0.5,5.6"/>
	<path class="st10" d="M-407.6,4.8c0,0,5.4-7.2,12.6-1.6c0,0,3.6-0.1,5.1,1.6c1.1,1.2,0.7,8.1,0.7,8.1"/>
</g>
<line class="st2" x1="-504" y1="2.5" x2="-504" y2="23.5"/>
<circle class="st7" cx="-348" cy="16" r="5.6"/>
<path class="st7" d="M-336.2,12.9h-1.1c-0.2-0.8-0.5-1.5-0.9-2.2l0.7-0.7c1.2-1.2,1.2-3.2,0-4.5c-1.2-1.2-3.2-1.2-4.5,0l-0.7,0.7
	c-0.7-0.4-1.4-0.7-2.2-0.9v-1c0-1.7-1.4-3.2-3.2-3.2s-3.2,1.4-3.2,3.2v1c-0.8,0.2-1.5,0.5-2.2,0.9l-0.7-0.7c-1.2-1.2-3.2-1.2-4.5,0
	c-1.2,1.2-1.2,3.2,0,4.5l0.7,0.7c-0.4,0.7-0.7,1.4-0.9,2.2h-1.1c-1.7,0-3.2,1.4-3.2,3.2s1.4,3.2,3.2,3.2h1.1
	c0.2,0.8,0.5,1.5,0.9,2.2l-0.8,0.8c-1.2,1.2-1.2,3.2,0,4.5c1.2,1.2,3.2,1.2,4.5,0l0.8-0.8c0.7,0.4,1.4,0.7,2.2,0.9v1.1
	c0,1.7,1.4,3.2,3.2,3.2s3.2-1.4,3.2-3.2v-1.1c0.8-0.2,1.5-0.5,2.2-0.9l0.8,0.8c1.2,1.2,3.2,1.2,4.5,0c1.2-1.2,1.2-3.2,0-4.5
	l-0.8-0.8c0.4-0.7,0.7-1.4,0.9-2.2h1.1c1.7,0,3.2-1.4,3.2-3.2S-334.4,12.9-336.2,12.9z"/>
<g>
	<path class="st7" d="M-289.4,19.5c0.6-1.2,1-2.6,0.8-4.1c-0.3-3.5-3.1-6.4-6.6-6.8c-4.7-0.6-8.6,3.2-8.4,7.8c0.2,4,3.7,7.1,7.8,7.1
		h6.1c0.8,0,1.1-0.9,0.6-1.5v0C-289.7,21.4-289.8,20.4-289.4,19.5z"/>
	<path class="st7" d="M-309.3,23c-1.3-2.4-1.9-5.2-1.7-8.2c0.6-7,6.2-12.8,13.1-13.6c9.4-1.1,17.3,6.4,16.8,15.6
		c-0.4,8.1-7.4,14.3-15.5,14.3h-12.3c-1.5,0-2.3-1.9-1.2-2.9v0C-308.7,26.8-308.4,24.7-309.3,23z"/>
</g>
<path class="st7" d="M-248.9,20.6h-8.7c-0.8,0-1.5-0.7-1.5-1.5v-8.9c0-0.8,0.7-1.5,1.5-1.5h8.7V20.6z"/>
<path class="st7" d="M-228.9,14.6c0-2.4-1.5-4.4-3.5-5.3c-0.6-0.2-1-0.8-1-1.4V2.6c0-1.1-1-1.8-2.1-1.5l-12.3,4.2
	c-0.6,0.2-1,0.8-1,1.5v15.6c0,0.7,0.4,1.2,1,1.5l12.3,4.2c1,0.3,2.1-0.4,2.1-1.5v-5.3c0-0.6,0.4-1.2,1-1.4
	C-230.4,19.1-228.9,17-228.9,14.6z"/>
<path class="st7" d="M-253.1,31h-1.7c-0.8,0-1.5-0.7-1.5-1.5v-9h4.6v9C-251.6,30.4-252.3,31-253.1,31z"/>
<circle class="st7" cx="-192" cy="16" r="15"/>
<g>
	<circle class="st7" cx="-192" cy="8" r="3.4"/>
	<path class="st7" d="M-192,27.5L-192,27.5c-1.9,0-3.4-1.5-3.4-3.4v-6.1c0-1.9,1.5-3.4,3.4-3.4l0,0c1.9,0,3.4,1.5,3.4,3.4V24
		C-188.6,25.9-190.1,27.5-192,27.5z"/>
</g>
<path class="st7" d="M-128.7,31h-20.1c-2,0-3.7-1.7-3.7-3.7V4.7c0-2,1.7-3.7,3.7-3.7h20.1c2,0,3.7,1.7,3.7,3.7v22.6
	C-125,29.3-126.6,31-128.7,31z"/>
<g>
	<line class="st12" x1="-155" y1="10.1" x2="-149.9" y2="10.1"/>
	<line class="st12" x1="-155" y1="16" x2="-149.9" y2="16"/>
	<line class="st12" x1="-155" y1="21.9" x2="-149.9" y2="21.9"/>
</g>
<g>
	<line class="st12" x1="-145.2" y1="7" x2="-129.4" y2="7"/>
	<line class="st12" x1="-145.2" y1="13" x2="-129.4" y2="13"/>
	<line class="st12" x1="-145.2" y1="19" x2="-129.4" y2="19"/>
	<line class="st12" x1="-145.2" y1="25" x2="-129.4" y2="25"/>
</g>
<path class="st12" d="M-82.6,31.1h-10.8c-5.3,0-9.7-4.3-9.7-9.7V10.6c0-5.3,4.3-9.7,9.7-9.7h10.8c5.3,0,9.7,4.3,9.7,9.7v10.8
	C-72.9,26.7-77.3,31.1-82.6,31.1z"/>
<circle class="st12" cx="-88" cy="16" r="9.6"/>
<path class="st12" d="M-88,11.1V16c0,0.5,0.4,0.9,0.9,0.9h3.5"/>
<circle class="st12" cx="-36" cy="16" r="15"/>
<circle class="st12" cx="-36" cy="16" r="8.1"/>
<line class="st12" x1="-36" y1="16" x2="-36" y2="5.4"/>
<path class="st12" d="M25.8,31.1H6.2c-2.9,0-5.3-2.4-5.3-5.3V6.2c0-2.9,2.4-5.3,5.3-5.3h19.6c2.9,0,5.3,2.4,5.3,5.3v19.6
	C31.1,28.7,28.7,31.1,25.8,31.1z"/>
<path class="st12" d="M0.9,19.4L8.4,12c0.8-0.8,2.1-0.8,2.9,0L22,22.7c0.8,0.8,2.1,0.8,2.9,0l6-6"/>
</svg>
