<?xml version="1.0" encoding="utf-8"?>
<!-- Generator: Adobe Illustrator 27.0.0, SVG Export Plug-In . SVG Version: 6.00 Build 0)  -->
<svg version="1.1" id="Layer_1" xmlns="http://www.w3.org/2000/svg" xmlns:xlink="http://www.w3.org/1999/xlink" x="0px" y="0px"
	 viewBox="0 0 32 32" style="enable-background:new 0 0 32 32;" xml:space="preserve">
<style type="text/css">
	.st0{fill:#D0121C;}
	.st1{fill:#FF6F00;}
	.st2{fill:none;stroke:#4152E2;stroke-width:4;stroke-linecap:round;stroke-miterlimit:10;}
	.st3{fill:#14C149;stroke:#06661F;stroke-width:2;stroke-linecap:round;stroke-miterlimit:10;}
	.st4{fill:none;stroke:#06661F;stroke-width:2;stroke-linecap:round;stroke-miterlimit:10;}
	.st5{fill:#E23030;stroke:#8A0606;stroke-width:2;stroke-linecap:round;stroke-miterlimit:10;}
	.st6{fill:none;stroke:#8A0606;stroke-width:2;stroke-linecap:round;stroke-miterlimit:10;}
	.st7{fill:none;stroke:#4152E2;stroke-width:2;stroke-miterlimit:10;}
	.st8{fill:none;stroke:#06661F;stroke-width:4;stroke-linecap:round;stroke-miterlimit:10;}
	.st9{fill:none;stroke:#B54900;stroke-width:2;stroke-miterlimit:10;}
	.st10{fill:none;stroke:#0A2287;stroke-width:2;stroke-linecap:round;stroke-miterlimit:10;}
	.st11{fill:none;stroke:#0A2287;stroke-width:2;stroke-miterlimit:10;}
	.st12{fill:none;stroke:#4152E2;stroke-width:2;stroke-linecap:round;stroke-miterlimit:10;}
</style>
<g>
	<path class="st7" d="M22.6,19.5c0.6-1.2,1-2.6,0.8-4.1c-0.3-3.5-3.1-6.4-6.6-6.8c-4.7-0.6-8.6,3.2-8.4,7.8c0.2,4,3.7,7.1,7.8,7.1
		h6.1c0.8,0,1.1-0.9,0.6-1.5l0,0C22.3,21.4,22.2,20.4,22.6,19.5z"/>
	<path class="st7" d="M2.7,23c-1.3-2.4-1.9-5.2-1.7-8.2C1.6,7.8,7.2,2,14.2,1.1C23.5,0,31.4,7.5,31,16.8C30.6,24.9,23.6,31,15.5,31
		H3.2c-1.5,0-2.3-1.9-1.2-2.9l0,0C3.3,26.8,3.6,24.7,2.7,23z"/>
</g>
</svg>
