<?xml version="1.0" encoding="utf-8"?>
<!-- Generator: Adobe Illustrator 27.0.0, SVG Export Plug-In . SVG Version: 6.00 Build 0)  -->
<svg version="1.1" id="Layer_1" xmlns="http://www.w3.org/2000/svg" xmlns:xlink="http://www.w3.org/1999/xlink" x="0px" y="0px"
	 viewBox="0 0 32 32" style="enable-background:new 0 0 32 32;" xml:space="preserve">
<style type="text/css">
	.st0{fill:#D0121C;}
	.st1{fill:#FF6F00;}
	.st2{fill:none;stroke:#4152E2;stroke-width:4;stroke-linecap:round;stroke-miterlimit:10;}
	.st3{fill:#14C149;stroke:#06661F;stroke-width:2;stroke-linecap:round;stroke-miterlimit:10;}
	.st4{fill:none;stroke:#06661F;stroke-width:2;stroke-linecap:round;stroke-miterlimit:10;}
	.st5{fill:#E23030;stroke:#8A0606;stroke-width:2;stroke-linecap:round;stroke-miterlimit:10;}
	.st6{fill:none;stroke:#8A0606;stroke-width:2;stroke-linecap:round;stroke-miterlimit:10;}
	.st7{fill:none;stroke:#4152E2;stroke-width:2;stroke-miterlimit:10;}
	.st8{fill:none;stroke:#06661F;stroke-width:4;stroke-linecap:round;stroke-miterlimit:10;}
	.st9{fill:none;stroke:#B54900;stroke-width:2;stroke-miterlimit:10;}
	.st10{fill:none;stroke:#0A2287;stroke-width:2;stroke-linecap:round;stroke-miterlimit:10;}
	.st11{fill:none;stroke:#0A2287;stroke-width:2;stroke-miterlimit:10;}
	.st12{fill:none;stroke:#4152E2;stroke-width:2;stroke-linecap:round;stroke-miterlimit:10;}
</style>
<path class="st12" d="M0.9,14.2l7.6-7.6c1.1-1.1,2.8-1.1,3.9,0l9.3,9.3"/>
<path class="st12" d="M23.7,16.2l5.2-5.2c0.5-0.5,0.5-1.2,0-1.7l-5.2-5.2c-0.7-0.7-2-0.2-2,0.8v10.5C21.7,16.4,22.9,16.9,23.7,16.2z
	"/>
<g>
	<line class="st12" x1="10.3" y1="19.6" x2="10.3" y2="27.4"/>
	<line class="st12" x1="21.7" y1="19.6" x2="21.7" y2="27.4"/>
	<line class="st12" x1="17.9" y1="22.3" x2="17.9" y2="24.7"/>
	<line class="st12" x1="14.1" y1="20.9" x2="14.1" y2="26.1"/>
</g>
<path class="st12" d="M25.7,31H6.3C3.4,31,1,28.7,1,25.7V6.3C1,3.4,3.4,1,6.3,1h19.5C28.7,1,31,3.4,31,6.3v19.5
	C31,28.7,28.7,31,25.7,31z"/>
</svg>
