<?xml version="1.0" encoding="utf-8"?>
<!-- Generator: Adobe Illustrator 27.0.0, SVG Export Plug-In . SVG Version: 6.00 Build 0)  -->
<svg version="1.1" id="Layer_1" xmlns="http://www.w3.org/2000/svg" xmlns:xlink="http://www.w3.org/1999/xlink" x="0px" y="0px"
	 viewBox="0 0 32 32" style="enable-background:new 0 0 32 32;" xml:space="preserve">
<style type="text/css">
	.st0{fill:#D0121C;}
	.st1{fill:#FF6F00;}
	.st2{fill:none;stroke:#4152E2;stroke-width:4;stroke-linecap:round;stroke-miterlimit:10;}
	.st3{fill:#14C149;stroke:#06661F;stroke-width:2;stroke-linecap:round;stroke-miterlimit:10;}
	.st4{fill:none;stroke:#06661F;stroke-width:2;stroke-linecap:round;stroke-miterlimit:10;}
	.st5{fill:#E23030;stroke:#8A0606;stroke-width:2;stroke-linecap:round;stroke-miterlimit:10;}
	.st6{fill:none;stroke:#8A0606;stroke-width:2;stroke-linecap:round;stroke-miterlimit:10;}
	.st7{fill:none;stroke:#4152E2;stroke-width:2;stroke-miterlimit:10;}
	.st8{fill:none;stroke:#06661F;stroke-width:4;stroke-linecap:round;stroke-miterlimit:10;}
	.st9{fill:none;stroke:#B54900;stroke-width:2;stroke-miterlimit:10;}
	.st10{fill:none;stroke:#0A2287;stroke-width:2;stroke-linecap:round;stroke-miterlimit:10;}
	.st11{fill:none;stroke:#0A2287;stroke-width:2;stroke-miterlimit:10;}
	.st12{fill:none;stroke:#4152E2;stroke-width:2;stroke-linecap:round;stroke-miterlimit:10;}
</style>
<circle class="st7" cx="16" cy="16" r="5.6"/>
<path class="st7" d="M27.8,12.9h-1.1c-0.2-0.8-0.5-1.5-0.9-2.2l0.7-0.7c1.2-1.2,1.2-3.2,0-4.5c-1.2-1.2-3.2-1.2-4.5,0l-0.7,0.7
	c-0.7-0.4-1.4-0.7-2.2-0.9v-1C19.2,2.5,17.8,1,16,1s-3.2,1.4-3.2,3.2v1c-0.8,0.2-1.5,0.5-2.2,0.9L9.9,5.4c-1.2-1.2-3.2-1.2-4.5,0
	c-1.2,1.2-1.2,3.2,0,4.5l0.7,0.7c-0.4,0.7-0.7,1.4-0.9,2.2H4.2C2.4,12.9,1,14.3,1,16s1.4,3.2,3.2,3.2h1.1c0.2,0.8,0.5,1.5,0.9,2.2
	l-0.8,0.8c-1.2,1.2-1.2,3.2,0,4.5c1.2,1.2,3.2,1.2,4.5,0l0.8-0.8c0.7,0.4,1.4,0.7,2.2,0.9v1.1c0,1.7,1.4,3.2,3.2,3.2
	s3.2-1.4,3.2-3.2v-1.1c0.8-0.2,1.5-0.5,2.2-0.9l0.8,0.8c1.2,1.2,3.2,1.2,4.5,0c1.2-1.2,1.2-3.2,0-4.5l-0.8-0.8
	c0.4-0.7,0.7-1.4,0.9-2.2h1.1c1.7,0,3.2-1.4,3.2-3.2S29.6,12.9,27.8,12.9z"/>
</svg>
