<?xml version="1.0" encoding="utf-8"?>
<!-- Generator: Adobe Illustrator 27.0.0, SVG Export Plug-In . SVG Version: 6.00 Build 0)  -->
<svg version="1.1" id="Layer_1" xmlns="http://www.w3.org/2000/svg" xmlns:xlink="http://www.w3.org/1999/xlink" x="0px" y="0px"
	 viewBox="0 0 32 32" style="enable-background:new 0 0 32 32;" xml:space="preserve">
<style type="text/css">
	.st0{fill:#D0121C;}
	.st1{fill:#FF6F00;}
	.st2{fill:none;stroke:#4152E2;stroke-width:4;stroke-linecap:round;stroke-miterlimit:10;}
	.st3{fill:#14C149;stroke:#06661F;stroke-width:2;stroke-linecap:round;stroke-miterlimit:10;}
	.st4{fill:none;stroke:#06661F;stroke-width:2;stroke-linecap:round;stroke-miterlimit:10;}
	.st5{fill:#E23030;stroke:#8A0606;stroke-width:2;stroke-linecap:round;stroke-miterlimit:10;}
	.st6{fill:none;stroke:#8A0606;stroke-width:2;stroke-linecap:round;stroke-miterlimit:10;}
	.st7{fill:none;stroke:#4152E2;stroke-width:2;stroke-miterlimit:10;}
	.st8{fill:none;stroke:#06661F;stroke-width:4;stroke-linecap:round;stroke-miterlimit:10;}
	.st9{fill:none;stroke:#B54900;stroke-width:2;stroke-miterlimit:10;}
	.st10{fill:none;stroke:#0A2287;stroke-width:2;stroke-linecap:round;stroke-miterlimit:10;}
	.st11{fill:none;stroke:#0A2287;stroke-width:2;stroke-miterlimit:10;}
	.st12{fill:none;stroke:#4152E2;stroke-width:2;stroke-linecap:round;stroke-miterlimit:10;}
</style>
<g>
	<path class="st10" d="M24.7,16.3c0,4.4-3.6,8-8,8h0c-4.4,0-8-3.6-8-8"/>
	<path class="st10" d="M11.7,11.8c4.3-0.1,6.4-1.6,8.3-2.5c0.5-0.2,1-0.1,1.3,0.2c0.8,0.8,2.4,2,3.8,2.3"/>
	<path class="st10" d="M13.7,23.7V25c0,1-0.5,1.9-1.4,2.5c-0.8,0.5-1.9,1-3.2,1.3c-2.7,0.6-4.7,1.6-4.7,1.6"/>
	<path class="st10" d="M20.5,23.7V25c0,1,0.5,1.9,1.4,2.5c0.8,0.5,1.9,1,3.2,1.3c2.7,0.6,4.7,1.6,4.7,1.6"/>
	<polyline class="st10" points="13.4,27.1 15.8,31 18.9,31 21,26.8 	"/>
	<path class="st10" d="M7.8,17.2c-1.2,0-2.1-1-2.1-2.1s1-2.1,2.1-2.1"/>
	<path class="st10" d="M26.1,17.2c1.2,0,2.1-1,2.1-2.1s-1-2.1-2.1-2.1"/>
	<path class="st10" d="M7.3,7.5c0,0-0.8,3.8-0.5,5.6"/>
	<path class="st10" d="M8.4,4.8c0,0,5.4-7.2,12.6-1.6c0,0,3.6-0.1,5.1,1.6c1.1,1.2,0.7,8.1,0.7,8.1"/>
</g>
</svg>
