<?xml version="1.0" encoding="utf-8"?>
<!-- Generator: Adobe Illustrator 27.0.0, SVG Export Plug-In . SVG Version: 6.00 Build 0)  -->
<svg version="1.1" id="Layer_1" xmlns="http://www.w3.org/2000/svg" xmlns:xlink="http://www.w3.org/1999/xlink" x="0px" y="0px"
	 viewBox="0 0 32 32" style="enable-background:new 0 0 32 32;" xml:space="preserve">
<style type="text/css">
	.st0{fill:#D0121C;}
	.st1{fill:#FF6F00;}
	.st2{fill:none;stroke:#4152E2;stroke-width:4;stroke-linecap:round;stroke-miterlimit:10;}
	.st3{fill:#14C149;stroke:#06661F;stroke-width:2;stroke-linecap:round;stroke-miterlimit:10;}
	.st4{fill:none;stroke:#06661F;stroke-width:2;stroke-linecap:round;stroke-miterlimit:10;}
	.st5{fill:#E23030;stroke:#8A0606;stroke-width:2;stroke-linecap:round;stroke-miterlimit:10;}
	.st6{fill:none;stroke:#8A0606;stroke-width:2;stroke-linecap:round;stroke-miterlimit:10;}
	.st7{fill:none;stroke:#4152E2;stroke-width:2;stroke-miterlimit:10;}
	.st8{fill:none;stroke:#06661F;stroke-width:4;stroke-linecap:round;stroke-miterlimit:10;}
	.st9{fill:none;stroke:#B54900;stroke-width:2;stroke-miterlimit:10;}
	.st10{fill:none;stroke:#0A2287;stroke-width:2;stroke-linecap:round;stroke-miterlimit:10;}
	.st11{fill:none;stroke:#0A2287;stroke-width:2;stroke-miterlimit:10;}
	.st12{fill:none;stroke:#4152E2;stroke-width:2;stroke-linecap:round;stroke-miterlimit:10;}
</style>
<path class="st10" d="M23.7,17c0,4.3-3.5,7.8-7.8,7.8h0c-4.3,0-7.8-3.5-7.8-7.8"/>
<path class="st10" d="M10.4,13.2c0,0,5.2,0,9.2-3.4c0.3-0.3,0.8-0.1,0.9,0.3c0.2,1.2,0.8,3.1,3.2,3.1"/>
<path class="st10" d="M12.9,24.2c0,0-0.1,4.1-3.5,4.5s-4.9,2.4-4.9,2.4"/>
<path class="st10" d="M19.5,24.2c0,0,0.1,4.1,3.5,4.5s4.9,2.4,4.9,2.4"/>
<path class="st10" d="M5.5,29.3c0,0-4.8-3-4.4-7.6s3.2-6.2,3.2-9.6S4.7,1.1,16,1.1s11.8,7.7,11.8,8.6c0,0.9-1,5,2,8.6
	c3.1,3.6-0.6,8.4-0.6,8.4"/>
<polyline class="st10" points="11.3,27.8 15.7,31.1 18,29.5 "/>
</svg>
