<?xml version="1.0" encoding="utf-8"?>
<!-- Generator: Adobe Illustrator 27.0.0, SVG Export Plug-In . SVG Version: 6.00 Build 0)  -->
<svg version="1.1" id="Layer_1" xmlns="http://www.w3.org/2000/svg" xmlns:xlink="http://www.w3.org/1999/xlink" x="0px" y="0px"
	 viewBox="0 0 213.9 200" style="enable-background:new 0 0 213.9 200;" xml:space="preserve">
<style type="text/css">
	.st_logo{fill:#FFFFFF;}
</style>
<g>
	<g>
		<path class="st_logo" d="M171.2,193c0.2-0.1,0.4-0.3,0.6-0.6c0.1-0.2,0.2-0.5,0.2-0.8v-2c0-0.3-0.1-0.5-0.2-0.8
			c-0.1-0.2-0.3-0.4-0.6-0.6c-0.2-0.1-0.5-0.2-0.8-0.2h-6.1v7.7h1.7v-2.5l2.2,0l2.1,2.5h1.7v-0.6l-1.7-2l0.1,0
			C170.7,193.3,170.9,193.2,171.2,193z M166,189.8h4.3v1.8H166V189.8z"/>
		<g>
			<path class="st_logo" d="M168.1,200c-4.4,0-8.1-3.6-8.1-8.1s3.6-8.1,8.1-8.1c4.4,0,8.1,3.6,8.1,8.1S172.6,200,168.1,200z
				 M168.1,185.4c-3.6,0-6.6,2.9-6.6,6.6s2.9,6.6,6.6,6.6c3.6,0,6.6-2.9,6.6-6.6S171.8,185.4,168.1,185.4z"/>
		</g>
	</g>
	<g>
		<g>
			<path class="st_logo" d="M173.1,156.3c-13.9-21.9-38.3-36.4-66.2-36.4c-27.8,0-52.2,14.5-66.1,36.3L68,199.9l31.3-44.1
				c3.7-5.2,11.5-5.2,15.2,0l31.4,44.2L173.1,156.3z"/>
		</g>
		<path class="st_logo" d="M80.5,0L53.4,43.6L72.6,74l0,0l7.1,11.3l-17.8-8.9L0,90.7l25.8,41.4c29.9-0.9,58-18.9,70.2-48.4
			C108.1,54.3,101,21.7,80.5,0z"/>
		<path class="st_logo" d="M133.4,0l27.1,43.6L141.3,74l0,0l-7.1,11.3l17.8-8.9l61.9,14.2l-25.8,41.4c-29.9-0.9-58-18.9-70.2-48.4
			C105.8,54.3,112.9,21.7,133.4,0z"/>
	</g>
</g>
</svg>
