<?xml version="1.0" encoding="utf-8"?>
<!-- Generator: Adobe Illustrator 27.0.0, SVG Export Plug-In . SVG Version: 6.00 Build 0)  -->
<svg version="1.1" id="Layer_1" xmlns="http://www.w3.org/2000/svg" xmlns:xlink="http://www.w3.org/1999/xlink" x="0px" y="0px"
	 viewBox="0 0 213.9 56" style="enable-background:new 0 0 213.9 56;" xml:space="preserve">
<style type="text/css">
	.st0_logo_text{fill:#FFFFFF;}
</style>
<g>
	<g>
		<path class="st0_logo_text" d="M66.2,46V10h6.1v8.9h15c1.2,0,2.3,0.3,3.3,0.9c1,0.6,1.8,1.4,2.3,2.3c0.6,1,0.9,2,0.9,3.2v14.2
			c0,1.2-0.3,2.3-0.9,3.2c-0.6,1-1.4,1.7-2.3,2.3c-1,0.6-2.1,0.9-3.3,0.9H66.2z M72.8,39.9H87c0.2,0,0.3-0.1,0.4-0.2
			c0.1-0.1,0.2-0.2,0.2-0.4V25.6c0-0.2-0.1-0.3-0.2-0.4C87.3,25.1,87.2,25,87,25H72.8c-0.2,0-0.3,0.1-0.4,0.2
			c-0.1,0.1-0.2,0.2-0.2,0.4v13.8c0,0.2,0.1,0.3,0.2,0.4C72.6,39.8,72.7,39.9,72.8,39.9z"/>
		<path class="st0_logo_text" d="M100.3,45.1c-1-0.6-1.7-1.4-2.3-2.3c-0.6-1-0.9-2-0.9-3.2v-1h6.1v0.8c0,0.2,0.1,0.3,0.2,0.4
			c0.1,0.1,0.2,0.2,0.4,0.2h14.2c0.2,0,0.3-0.1,0.4-0.2c0.1-0.1,0.2-0.2,0.2-0.4v-3.2c0-0.2-0.1-0.3-0.2-0.4
			c-0.1-0.1-0.2-0.2-0.4-0.2h-14.4c-1.2,0-2.3-0.3-3.2-0.9c-1-0.6-1.7-1.4-2.3-2.3c-0.6-1-0.9-2-0.9-3.2v-3.7c0-1.2,0.3-2.3,0.9-3.2
			c0.6-1,1.4-1.7,2.3-2.3c1-0.6,2-0.9,3.2-0.9h14.6c1.2,0,2.3,0.3,3.3,0.9c1,0.6,1.7,1.4,2.3,2.3c0.6,1,0.9,2,0.9,3.2v1h-6.2v-0.8
			c0-0.2-0.1-0.3-0.2-0.4c-0.1-0.1-0.2-0.2-0.4-0.2h-14.2c-0.2,0-0.3,0.1-0.4,0.2c-0.1,0.1-0.2,0.2-0.2,0.4v3.2
			c0,0.2,0.1,0.3,0.2,0.4c0.1,0.1,0.2,0.2,0.4,0.2h14.4c1.2,0,2.3,0.3,3.3,0.9c1,0.6,1.7,1.4,2.3,2.3c0.6,1,0.9,2,0.9,3.2v3.7
			c0,1.2-0.3,2.3-0.9,3.2c-0.6,1-1.4,1.7-2.3,2.3c-1,0.6-2.1,0.9-3.3,0.9h-14.6C102.3,46,101.3,45.7,100.3,45.1z"/>
		<path class="st0_logo_text" d="M138.2,46l-10.7-27.1h6.5l6.6,16l6.9-16h6.4l7.4,16.1l6.1-16.1h6.5L163.8,46H159l-8.2-18.1L143,46H138.2z"/>
		<path class="st0_logo_text" d="M175.7,46V25.3c0-1.2,0.3-2.3,0.9-3.2c0.6-1,1.4-1.7,2.4-2.3c1-0.6,2.1-0.9,3.2-0.9h15.1V25h-14.8
			c-0.2,0-0.3,0.1-0.4,0.2c-0.1,0.1-0.2,0.2-0.2,0.4V46H175.7z"/>
	</g>
	<g>
		<path class="st0_logo_text" d="M209.8,26.4c0.2-0.1,0.4-0.3,0.5-0.5c0.1-0.2,0.2-0.4,0.2-0.6v-1.6c0-0.2-0.1-0.4-0.2-0.6
			c-0.1-0.2-0.3-0.4-0.5-0.5s-0.4-0.2-0.7-0.2h-5v6.3h1.4v-2.1l1.8,0l1.7,2.1h1.4v-0.5l-1.4-1.6l0.1,0
			C209.4,26.5,209.6,26.5,209.8,26.4z M205.5,23.7h3.6v1.5h-3.6V23.7z"/>
		<g>
			<path class="st0_logo_text" d="M207.3,32.1c-3.6,0-6.6-3-6.6-6.6s3-6.6,6.6-6.6c3.6,0,6.6,3,6.6,6.6S210.9,32.1,207.3,32.1z M207.3,20.1
				c-3,0-5.4,2.4-5.4,5.4s2.4,5.4,5.4,5.4c3,0,5.4-2.4,5.4-5.4S210.3,20.1,207.3,20.1z"/>
		</g>
	</g>
	<g>
		<g>
			<path class="st0_logo_text" d="M48.4,43.7c-3.9-6.1-10.7-10.2-18.5-10.2c-7.8,0-14.6,4.1-18.5,10.2L19,56l8.8-12.3c1-1.5,3.2-1.5,4.3,0
				L40.8,56L48.4,43.7z"/>
		</g>
		<path class="st0_logo_text" d="M22.5,0L15,12.2l5.4,8.5l0,0l2,3.2l-5-2.5L0,25.4L7.2,37c8.4-0.2,16.2-5.3,19.6-13.6
			C30.3,15.2,28.3,6.1,22.5,0z"/>
		<path class="st0_logo_text" d="M37.3,0l7.6,12.2l-5.4,8.5l0,0l-2,3.2l5-2.5l17.3,4L52.7,37c-8.4-0.2-16.2-5.3-19.6-13.6
			C29.6,15.2,31.6,6.1,37.3,0z"/>
	</g>
</g>
</svg>
